<svg xmlns="http://www.w3.org/2000/svg" width="24" height="24" fill="none" viewBox="0 0 24 24">
    <path fill="#212121" fill-rule="evenodd" d="M7.301 5.697C7.301 3.107 9.48 1 12.155 1c2.677 0 4.854 2.107 4.854 4.697v2.02h2.06c.434 0 .798.318.843.736l1.072 10.076c.091.9-.21 1.792-.826 2.45C19.55 21.627 18.68 22 17.772 22H6.257c-.912 0-1.79-.38-2.41-1.042-.619-.662-.922-1.546-.831-2.426L4.117 8.451c.045-.417.409-.733.842-.733H7.3V5.697zm1.693 2.02h6.322v-2.02c0-1.687-1.418-3.059-3.16-3.059-1.744 0-3.162 1.372-3.162 3.059v2.02zm8.778 12.645c.437 0 .84-.172 1.132-.484.3-.32.44-.741.395-1.184l-.994-9.338H5.721L4.7 18.7c-.044.415.103.84.402 1.159.299.32.72.502 1.154.502h11.515z" clip-rule="evenodd"/>
</svg>
